<?xml version="1.0" standalone="no"?>
<!DOCTYPE svg PUBLIC "-//W3C//DTD SVG 1.1//EN" "http://www.w3.org/Graphics/SVG/1.1/DTD/svg11.dtd">
<svg xmlns="http://www.w3.org/2000/svg">
<metadata>Copyright (C) 2016 by original authors @ fontello.com</metadata>
<defs>
<font id="bi-icons" horiz-adv-x="1000" >
<font-face font-family="bi-icons" font-weight="400" font-stretch="normal" units-per-em="1000" ascent="850" descent="-150" />
<missing-glyph horiz-adv-x="1000" />
<glyph glyph-name="aol-im" unicode="&#xe800;" d="M658 796c-35 36-78 54-129 54s-93-18-130-54c-35-37-54-80-54-130 0-41 13-78 38-110-79-56-124-149-135-279-1-19-3-31-5-37-27-54-67-94-122-121-19-10-37-16-55-22l-66-10 87-237 27 6c87 19 158 50 214 92 36 26 71 65 109 115 92-46 155-107 188-181l16-28 196 115-11 24c-48 109-115 196-200 263 51 6 110 29 176 66l25 15-84 194-31-18c-43-22-88-31-137-25 40 10 73 32 98 65 27 33 39 70 39 112 0 52-18 94-54 131z m90-433c-51-26-95-41-133-46l-91 5-20 3c-16 0-27-10-29-30-1-14 4-23 14-27l30-17c24-12 46-28 68-44 71-56 127-127 170-213l-90-53c-45 81-121 143-227 189-3 3-9 4-14 4-8 0-15-3-21-8l-15-20c-34-46-64-80-91-101-45-38-103-65-173-82l-42 115c101 27 172 86 215 176 4 8 8 28 11 57 6 64 17 115 36 152 19 38 46 67 85 89 18-13 39-21 62-27l1-6c1-13 3-21 5-28l4-14 14-5c62-20 127-15 195 13l36-82z m-219 420c33 0 60-11 83-34 24-24 35-51 35-83s-11-60-35-83c-23-23-50-35-83-35s-59 11-83 35c-24 23-35 50-35 83s11 59 35 83c24 23 51 34 83 34z" horiz-adv-x="837" />

<glyph glyph-name="arrow-right" unicode="&#xe801;" d="M0 348c0-21 17-38 39-38h828l-335-335c-15-15-15-39 0-54 8-8 18-12 28-12 9 0 19 4 27 12l402 402c15 15 15 39 0 54l-402 402c-15 15-39 15-55 0-15-15-15-39 0-54l339-338h-832c-22 0-39-18-39-39z" horiz-adv-x="1000" />

<glyph glyph-name="check-circle" unicode="&#xe802;" d="M500 850c-276 0-500-224-500-500s224-500 500-500 500 224 500 500-224 500-500 500z m0-963c-255 0-462 208-462 463s207 463 462 463 463-207 463-463-207-463-463-463z m-52 323l-124 118 26 28 97-92 227 226 27-27c0 0-253-253-253-253z" horiz-adv-x="1000" />

<glyph glyph-name="check" unicode="&#xe803;" d="M329-21l-329 313 69 73 258-245 602 601 71-71-671-671z" horiz-adv-x="1000" />

<glyph glyph-name="comments" unicode="&#xe804;" d="M511-139c-79 0-155 19-220 56-19-8-37-14-52-19-6-1-12-3-17-5l-3-1-3 0c-56-8-155-1-159-1l-57 4 99 189c-50 80-77 171-77 266 0 130 51 253 144 345s215 144 345 144 253-51 345-143 144-216 144-346-51-253-143-345-216-144-346-144z m-216 141l18-11c57-36 126-55 198-55 110 0 214 43 292 122 78 78 122 182 122 292s-44 214-122 292-182 121-292 121-213-42-292-121c-78-78-121-182-121-292 0-87 26-171 76-241l13-19-66-126c27-1 59-1 81 2 5 1 10 3 15 4 18 6 40 13 60 23l18 9z" horiz-adv-x="1000" />

<glyph glyph-name="email" unicode="&#xe805;" d="M0 707v-714h1000v714h-1000z m829-71l-329-329-328 329h657z m100-571h-857v571l428-429 429 429v-571z" horiz-adv-x="1000" />

<glyph glyph-name="facebook-square" unicode="&#xe806;" d="M813 850c51 0 95-18 132-55s55-81 55-132v-625c0-52-18-96-55-133s-81-55-132-55h-123v387h130l19 151h-149v97c0 24 5 42 15 54 11 13 30 19 60 19l80 0v135c-28 4-66 6-116 6-59 0-107-17-142-52s-53-84-53-147v-112h-130v-150h130v-388h-346c-52 0-96 18-133 55s-55 81-55 133v625c0 51 18 95 55 132s81 55 133 55h625z" horiz-adv-x="1000" />

<glyph glyph-name="facebook" unicode="&#xe807;" d="M736 504h-149v98c11 94 165 76 165 76v161h0c-5 1-307 72-367-157v0c0-1 0-1 0-2-10-29-9-160-9-176h-129v-176h137v-478h199v478h153l17 176h-17" horiz-adv-x="1000" />

<glyph glyph-name="google-plus" unicode="&#xe808;" d="M317 31c-172 0-317 144-317 322s145 317 317 317c83 0 155-34 211-84l-83-83c-23 22-67 50-128 50-111 0-195-89-195-200s89-200 195-200c128 0 172 89 183 133h-183v111h300c5-16 5-33 5-55 0-178-122-311-305-311z m683 278h-89v-89h-89v89h-89v89h89v88h89v-89h89v-88z" horiz-adv-x="1000" />

<glyph glyph-name="instagram" unicode="&#xe809;" d="M1000-22c0-73-55-128-128-128h-744c-72 0-128 55-128 128v744c0 73 56 128 128 128h744c73 0 128-55 128-128v-744z m-111 450h-89c11-28 11-56 11-83 0-167-139-300-311-300s-311 133-311 300c0 27 6 61 11 83h-89v-422c0-23 17-40 39-40h695c22 0 39 17 39 40v422h5z m-389 117c-111 0-200-84-200-195 0-105 89-194 200-194s200 89 200 194c0 111-89 195-200 195z m389 150c0 22-22 44-44 44h-111c-23 0-45-22-45-44v-106c0-22 22-44 45-44h111c22 0 44 22 44 44v106z" horiz-adv-x="1000" />

<glyph glyph-name="link-circle" unicode="&#xe80a;" d="M500 850c-276 0-500-224-500-500s224-500 500-500 500 224 500 500-224 500-500 500z m0-963c-255 0-462 208-462 463s207 463 462 463 463-207 463-463-207-463-463-463z m-29 276c-38-42-104-45-146-7s-45 103-7 146c2 2 5 4 7 6l73 73-29 29-73-72c-57-57-57-148 0-205 56-56 148-56 204 0l73 73-29 29-73-72z m29 379l-73-73 29-29 73 73c41 39 107 38 146-3 38-40 38-103 0-143l-73-73 29-29 73 73c57 56 57 148 0 204-56 56-148 56-204 0m117-88c-8 8-21 8-29 0l-73-73-59-58-73-73c-8-8-8-21 0-29 8-8 22-8 30 0l73 73 58 58 73 73c8 8 8 21 0 29" horiz-adv-x="1000" />

<glyph glyph-name="link" unicode="&#xe80b;" d="M440-3c-77-85-209-92-294-13-85 78-92 210-12 295l12 12 147 148-59 59-148-147c-115-115-115-299 0-414s300-115 414 0l148 147-60 60-148-147z m60 768l-147-147 60-60 147 147c82 80 214 78 294-5 77-79 77-209 0-289l-147-147 60-60 147 147c115 115 115 300 0 414-115 112-299 112-414 0m237-177c-17 18-42 18-60 0l-147-147-117-117-147-147c-18-18-18-43 0-60s42-18 59 0l148 147 117 117 147 148c15 17 15 42 0 59" horiz-adv-x="1000" />

<glyph glyph-name="linkedin" unicode="&#xe80c;" d="M241 717q1-48-33-80t-88-32h-1q-54 0-86 32t-33 80q0 48 34 79t87 32q54 0 87-32t33-79z m-14-200v-645h-215v645h215z m773-275v-370h-214v345q0 69-27 107t-82 39q-41 0-69-22a138 138 0 0 1-41-56q-7-20-7-53v-360h-214q1 260 1 421t-1 193l0 31h214v-93h-1a283 283 0 0 0 26 36 278 278 0 0 0 37 34 169 169 0 0 0 57 28 258 258 0 0 0 74 10q112 0 179-74t68-216z" horiz-adv-x="1000" />

<glyph glyph-name="menu-bars" unicode="&#xe80d;" d="M0 670h1000v-80h-1000v80z m0-280h1000v-80h-1000v80z m0-280h1000v-80h-1000v80z" horiz-adv-x="1000" />

<glyph glyph-name="menu-close" unicode="&#xe80e;" d="M1000 776l-74 74-426-426-426 426-74-74 426-426-426-426 74-74 426 426 426-426 74 74-426 426 426 426z" horiz-adv-x="1000" />

<glyph glyph-name="pinterest" unicode="&#xe80f;" d="M933 601c45-77 67-160 67-251s-22-174-67-251a500 500 0 0 0-182-182c-76-45-160-67-251-67-48 0-96 7-142 21 26 40 43 76 51 106 4 15 15 61 35 138 9-17 25-32 48-44 22-12 48-19 74-19 52 0 99 15 140 45s74 70 96 123c23 52 34 110 34 175 0 50-13 98-39 140-26 43-63 79-112 106s-104 41-166 41c-43 0-86-6-128-19-39-13-73-29-100-50-27-20-51-44-71-72-19-25-34-54-44-84-9-28-14-58-14-87 0-46 9-85 26-120s43-58 76-72c13-5 22-1 25 13 1 3 3 10 5 20s5 17 6 20c2 10 0 19-8 28-22 26-33 59-33 98 0 66 23 122 68 169s105 71 178 71c66 0 117-18 153-54 37-35 55-81 55-138 0-74-15-137-44-188-30-52-68-78-115-78-26 0-47 10-63 28s-21 42-15 68c3 16 9 36 17 61s14 48 19 67c5 16 7 33 8 50 0 21-6 39-18 54-11 14-28 21-50 21-27 0-50-12-68-37-19-25-28-56-28-93 0-31 5-58 16-79l-64-272c-8-31-11-69-9-116-89 40-162 101-217 184s-82 174-82 275c0 91 22 174 67 251 44 76 107 138 182 182 77 45 160 67 251 67s175-22 251-67c76-44 138-106 182-182z" horiz-adv-x="1000" />

<glyph glyph-name="pipe-divider" unicode="&#xe810;" d="M0 850h46v-1000h-46v1000z" horiz-adv-x="46" />

<glyph glyph-name="print" unicode="&#xe811;" d="M857 814h-714v-357h-143v-572h1000v572h-143v357z m-643-71h572v-572h-572v572z m715-714v-72h-857v72h857z" horiz-adv-x="1000" />

<glyph glyph-name="search" unicode="&#xe812;" d="M981-44l-194 194c55 74 88 164 88 263 0 241-196 437-437 437s-438-196-438-437c0-242 196-438 438-438 98 0 189 33 262 88l194-194c12-12 24-19 44-19 34 0 62 28 62 62 0 14-3 29-19 44z m-856 457c0 172 140 312 312 312s313-140 313-312-140-313-313-313-312 140-312 313z" horiz-adv-x="1000" />

<glyph glyph-name="star-box" unicode="&#xe813;" d="M857 850h-714c-79 0-143-64-143-143v-714c0-79 64-143 143-143h714c79 0 143 64 143 143v714c0 79-64 143-143 143z m-137-833l-220 151-220-151 76 256-212 163 267 6 89 253 89-252 268-7-213-163 76-256z" horiz-adv-x="1000" />

<glyph glyph-name="timestamp" unicode="&#xe814;" d="M500 849c-134 0-259-52-353-146-95-95-147-220-147-353 0-275 224-499 500-499s500 224 500 499c0 275-224 499-500 499z m0-938c-243 0-441 197-441 439 0 117 46 228 129 311 84 83 194 128 312 128 243 0 441-197 441-439 0-242-198-439-441-439z m23 737h-59v-310l150-149 42 43-133 131v285z" horiz-adv-x="1000" />

<glyph glyph-name="triangle-right" unicode="&#xe815;" d="M0-150v1000l583-500-583-500z" horiz-adv-x="583" />

<glyph glyph-name="twitter" unicode="&#xe816;" d="M1000 660c-28-41-63-77-103-106 1-6 1-15 1-27 0-56-8-111-24-165-17-56-41-109-73-158-33-50-72-95-117-133-46-39-100-70-164-93-64-23-132-35-205-35-115 1-220 31-315 93 17-2 33-2 50-2 95 0 180 29 254 87-88 2-164 59-191 142 12-2 25-3 38-3 19 0 37 2 54 7-46 9-88 34-117 71-31 37-47 81-47 130v3c28-16 60-25 93-26-28 18-51 43-67 73-17 30-25 63-25 97 0 37 10 72 28 104 51-63 115-115 187-151 73-38 153-60 236-63-4 15-5 31-5 47 0 56 20 105 60 145s88 60 145 60c59 0 109-22 149-65 46 9 90 25 130 49-15-48-45-86-90-113 41 5 81 15 118 32z" horiz-adv-x="1000" />

<glyph glyph-name="velocity-bi" unicode="&#xe817;" d="M497 412c-60 99-110 181-62 438 0 0-435-310-435-660 0-177 92-262 168-302-16 25-25 55-25 88 0 17 3 34 8 50 5 21 15 39 27 54-4-20-8-31-8-43 0-33 21-63 54-63s61 28 61 61c0 40-49 52-21 169 21 70 50 99 117 99-37-17-41-50-20-119 26-90 110-120 110-209 0-44-18-84-46-113-1-4-1-8-2-12 189 99 232 344 74 562z" horiz-adv-x="594" />

<glyph glyph-name="velocity-insider-outline" unicode="&#xe818;" d="M358 808l-121-236-30-61h212l-264-371 83 220 22 55h-199l152 393h144m69 42h-241l-185-476h200l-200-524 500 702h-222l148 298z" horiz-adv-x="500" />

<glyph glyph-name="velocity-insider" unicode="&#xe819;" d="M185 850l-185-476h200l-200-524 499 702h-224l151 298h-241z" horiz-adv-x="499" />

<glyph glyph-name="velocity-ti" unicode="&#xe81a;" d="M416 850l-416-583h250l-77-417 416 583h-250l77 417z" horiz-adv-x="589" />

<glyph glyph-name="youtube" unicode="&#xe81b;" d="M990 550s-10 69-40 99c-38 40-80 41-100 43-140 10-350 10-350 10h0s-210 0-350-10c-19-3-62-3-100-43-30-30-40-99-40-99s-10-81-10-162v-76c0-81 10-161 10-161s10-69 40-100c38-40 88-38 110-42 80-8 340-11 340-11s210 1 350 11c20 2 62 3 100 42 30 31 40 100 40 100s10 81 10 161v76c0 81-10 162-10 162z m-593-330v281l270-141-270-140z" horiz-adv-x="1000" />
</font>
</defs>
</svg>
